<svg width="22" height="22" viewBox="0 0 22 22" fill="none" xmlns="http://www.w3.org/2000/svg">
<path d="M5.6345 18.7873C4.53324 17.686 3.78327 16.2829 3.47944 14.7554C3.17561 13.2279 3.33156 11.6446 3.92756 10.2057C4.52357 8.76687 5.53287 7.53704 6.82783 6.67178C8.12279 5.80652 9.64524 5.34469 11.2027 5.34469C12.7601 5.34469 14.2826 5.80652 15.5775 6.67178C16.8725 7.53704 17.8818 8.76687 18.4778 10.2057C19.0738 11.6446 19.2297 13.2279 18.9259 14.7554C18.6221 16.2829 17.8721 17.686 16.7708 18.7873L18.008 20.0245C18.9031 19.1318 19.6129 18.071 20.0967 16.9031C20.5804 15.7352 20.8287 14.4833 20.8271 13.2192C20.8271 7.90384 16.518 3.59473 11.2027 3.59473C5.88736 3.59473 1.57825 7.90384 1.57825 13.2192C1.57825 15.8772 2.65531 18.2833 4.39733 20.0245L5.6345 18.7873Z" fill="#159643"/>
<path d="M15.5336 17.5502C16.3901 16.6936 16.9734 15.6023 17.2096 14.4142C17.4459 13.2262 17.3246 11.9948 16.861 10.8757C16.3974 9.75657 15.6124 8.80007 14.6052 8.12711C13.5981 7.45416 12.4139 7.09497 11.2026 7.09497C9.99133 7.09497 8.80722 7.45416 7.80004 8.12711C6.79286 8.80007 6.00785 9.75657 5.54428 10.8757C5.0807 11.9948 4.95937 13.2262 5.19564 14.4142C5.43191 15.6023 6.01517 16.6936 6.87165 17.5502L8.1097 16.313C7.49787 15.7012 7.08121 14.9217 6.9124 14.073C6.7436 13.2244 6.83023 12.3448 7.16134 11.5454C7.49245 10.746 8.05317 10.0628 8.77259 9.58208C9.49202 9.10138 10.3378 8.8448 11.2031 8.8448C12.0683 8.8448 12.9141 9.10138 13.6336 9.58208C14.353 10.0628 14.9137 10.746 15.2448 11.5454C15.5759 12.3448 15.6626 13.2244 15.4937 14.073C15.3249 14.9217 14.9083 15.7012 14.2965 16.313L15.5336 17.5502Z" fill="#159643"/>
<path d="M13.0584 15.075C13.4255 14.7079 13.6754 14.2402 13.7767 13.731C13.8779 13.2218 13.8259 12.6941 13.6272 12.2145C13.4286 11.7349 13.0921 11.325 12.6605 11.0366C12.2288 10.7482 11.7214 10.5942 11.2022 10.5942C10.6831 10.5942 10.1756 10.7482 9.744 11.0366C9.31235 11.325 8.97592 11.7349 8.77724 12.2145C8.57856 12.6941 8.52655 13.2218 8.6278 13.731C8.72904 14.2402 8.97899 14.7079 9.34604 15.075L10.5841 13.8378C10.4617 13.7154 10.3783 13.5595 10.3446 13.3898C10.3108 13.2201 10.3281 13.0441 10.3943 12.8843C10.4605 12.7244 10.5727 12.5877 10.7166 12.4915C10.8604 12.3954 11.0296 12.3441 11.2027 12.3441C11.3757 12.3441 11.5449 12.3954 11.6888 12.4915C11.8327 12.5877 11.9448 12.7244 12.011 12.8843C12.0773 13.0441 12.0946 13.2201 12.0608 13.3898C12.027 13.5595 11.9437 13.7154 11.8213 13.8378L13.0584 15.075Z" fill="#159643"/>
</svg>
