<svg width="743" height="20" viewBox="0 0 743 20" fill="none" xmlns="http://www.w3.org/2000/svg">
<path d="M34 10.2734C34 9.01786 35.0179 8 36.2734 8H705.576C706.831 8 707.849 9.01786 707.849 10.2734C707.849 11.529 706.831 12.5469 705.576 12.5469H36.2734C35.0178 12.5469 34 11.529 34 10.2734Z" fill="#B3B3B3"/>
<path d="M2.88772 7.3229C2.41257 7.82305 2.17499 8.69833 2.17499 9.94872C2.17499 11.1991 2.41257 12.0744 2.88772 12.5746C3.22115 12.9247 3.65046 13.0997 4.17562 13.0997C4.70079 13.0997 5.13009 12.9247 5.46353 12.5746C5.93868 12.0744 6.17625 11.1991 6.17625 9.94872C6.17625 8.69833 5.93868 7.82305 5.46353 7.3229C5.13009 6.97279 4.70079 6.79773 4.17562 6.79773C3.65046 6.79773 3.22115 6.97279 2.88772 7.3229ZM1.68734 12.8871C1.20385 12.1703 0.962108 11.1908 0.962108 9.94872C0.962108 8.70667 1.20385 7.72719 1.68734 7.0103C2.26252 6.14336 3.09195 5.70989 4.17562 5.70989C5.2593 5.70989 6.08872 6.14336 6.66391 7.0103C7.14739 7.72719 7.38913 8.70667 7.38913 9.94872C7.38913 11.1908 7.14739 12.1703 6.66391 12.8871C6.08872 13.7541 5.2593 14.1876 4.17562 14.1876C3.09195 14.1876 2.26252 13.7541 1.68734 12.8871ZM9.21793 13.8124C9.05121 13.6457 8.96785 13.4415 8.96785 13.1997C8.96785 12.958 9.05121 12.7538 9.21793 12.5871C9.38465 12.412 9.58888 12.3245 9.83062 12.3245C10.0724 12.3245 10.2766 12.412 10.4433 12.5871C10.6184 12.7538 10.7059 12.958 10.7059 13.1997C10.7059 13.4415 10.6184 13.6457 10.4433 13.8124C10.2766 13.9792 10.0724 14.0625 9.83062 14.0625C9.58888 14.0625 9.38465 13.9792 9.21793 13.8124ZM9.20543 9.41105C9.03871 9.24433 8.95535 9.0401 8.95535 8.79836C8.95535 8.55662 9.03871 8.35239 9.20543 8.18567C9.37215 8.01061 9.57638 7.92308 9.81812 7.92308C10.0599 7.92308 10.2641 8.01061 10.4308 8.18567C10.6059 8.35239 10.6934 8.55662 10.6934 8.79836C10.6934 9.0401 10.6059 9.24433 10.4308 9.41105C10.2641 9.57777 10.0599 9.66113 9.81812 9.66113C9.57638 9.66113 9.37215 9.57777 9.20543 9.41105ZM14.195 7.3229C13.7198 7.82305 13.4823 8.69833 13.4823 9.94872C13.4823 11.1991 13.7198 12.0744 14.195 12.5746C14.5284 12.9247 14.9577 13.0997 15.4829 13.0997C16.0081 13.0997 16.4374 12.9247 16.7708 12.5746C17.246 12.0744 17.4835 11.1991 17.4835 9.94872C17.4835 8.69833 17.246 7.82305 16.7708 7.3229C16.4374 6.97279 16.0081 6.79773 15.4829 6.79773C14.9577 6.79773 14.5284 6.97279 14.195 7.3229ZM12.9946 12.8871C12.5111 12.1703 12.2694 11.1908 12.2694 9.94872C12.2694 8.70667 12.5111 7.72719 12.9946 7.0103C13.5698 6.14336 14.3992 5.70989 15.4829 5.70989C16.5666 5.70989 17.396 6.14336 17.9712 7.0103C18.4547 7.72719 18.6964 8.70667 18.6964 9.94872C18.6964 11.1908 18.4547 12.1703 17.9712 12.8871C17.396 13.7541 16.5666 14.1876 15.4829 14.1876C14.3992 14.1876 13.5698 13.7541 12.9946 12.8871ZM21.8146 7.3229C21.3394 7.82305 21.1019 8.69833 21.1019 9.94872C21.1019 11.1991 21.3394 12.0744 21.8146 12.5746C22.148 12.9247 22.5773 13.0997 23.1025 13.0997C23.6276 13.0997 24.057 12.9247 24.3904 12.5746C24.8655 12.0744 25.1031 11.1991 25.1031 9.94872C25.1031 8.69833 24.8655 7.82305 24.3904 7.3229C24.057 6.97279 23.6276 6.79773 23.1025 6.79773C22.5773 6.79773 22.148 6.97279 21.8146 7.3229ZM20.6142 12.8871C20.1307 12.1703 19.889 11.1908 19.889 9.94872C19.889 8.70667 20.1307 7.72719 20.6142 7.0103C21.1894 6.14336 22.0188 5.70989 23.1025 5.70989C24.1862 5.70989 25.0156 6.14336 25.5908 7.0103C26.0743 7.72719 26.316 8.70667 26.316 9.94872C26.316 11.1908 26.0743 12.1703 25.5908 12.8871C25.0156 13.7541 24.1862 14.1876 23.1025 14.1876C22.0188 14.1876 21.1894 13.7541 20.6142 12.8871Z" fill="#B3B3B3"/>
<path d="M718.016 9.81086L716.79 9.66082C716.782 9.58579 716.778 9.47743 716.778 9.33572C716.778 8.61049 717.032 7.99363 717.541 7.48513C718.049 6.9683 718.729 6.70989 719.579 6.70989C720.421 6.70989 721.088 6.95163 721.579 7.43512C722.071 7.91027 722.317 8.49795 722.317 9.19817C722.317 10.2235 721.809 11.0571 720.792 11.699L719.191 12.7243C718.616 13.0911 718.287 13.4704 718.203 13.8621H722.367V15H716.69C716.707 14.3165 716.861 13.7163 717.153 13.1994C717.453 12.6826 717.941 12.2075 718.616 11.774L719.966 10.8987C720.708 10.4236 721.079 9.86088 721.079 9.21068C721.079 8.81055 720.946 8.47294 720.679 8.19786C720.412 7.92277 720.037 7.78523 719.554 7.78523C719.045 7.78523 718.658 7.93944 718.391 8.24787C718.124 8.5563 717.991 8.95643 717.991 9.44825C717.991 9.52327 717.999 9.64415 718.016 9.81086ZM724.071 14.8124C723.905 14.6457 723.821 14.4415 723.821 14.1997C723.821 13.958 723.905 13.7538 724.071 13.5871C724.238 13.412 724.442 13.3245 724.684 13.3245C724.926 13.3245 725.13 13.412 725.297 13.5871C725.472 13.7538 725.559 13.958 725.559 14.1997C725.559 14.4415 725.472 14.6457 725.297 14.8124C725.13 14.9792 724.926 15.0625 724.684 15.0625C724.442 15.0625 724.238 14.9792 724.071 14.8124ZM724.059 10.4111C723.892 10.2443 723.809 10.0401 723.809 9.79836C723.809 9.55662 723.892 9.35239 724.059 9.18567C724.226 9.01061 724.43 8.92308 724.672 8.92308C724.913 8.92308 725.118 9.01061 725.284 9.18567C725.459 9.35239 725.547 9.55662 725.547 9.79836C725.547 10.0401 725.459 10.2443 725.284 10.4111C725.118 10.5778 724.913 10.6611 724.672 10.6611C724.43 10.6611 724.226 10.5778 724.059 10.4111ZM726.935 12.7993L728.111 12.4492C728.144 12.9494 728.327 13.3536 728.661 13.6621C729.003 13.9705 729.428 14.1247 729.936 14.1247C730.428 14.1247 730.841 13.9747 731.174 13.6746C731.508 13.3745 731.674 12.9785 731.674 12.4867C731.674 11.9532 731.508 11.5406 731.174 11.2488C730.841 10.9571 730.424 10.8112 729.924 10.8112C729.315 10.8112 728.823 11.0071 728.448 11.3989C728.332 11.3572 728.14 11.2822 727.873 11.1738C727.606 11.0654 727.398 10.9821 727.248 10.9237L728.298 6.89745H732.575V8.0228H729.111L728.511 10.3485C728.869 9.94841 729.419 9.74835 730.161 9.74835C730.97 9.74835 731.628 9.99009 732.137 10.4736C732.654 10.9571 732.912 11.6114 732.912 12.4367C732.912 13.2203 732.637 13.8788 732.087 14.4123C731.537 14.9375 730.82 15.2001 729.936 15.2001C729.103 15.2001 728.407 14.9667 727.848 14.4998C727.298 14.033 726.994 13.4662 726.935 12.7993ZM735.899 8.3229C735.424 8.82305 735.186 9.69833 735.186 10.9487C735.186 12.1991 735.424 13.0744 735.899 13.5746C736.232 13.9247 736.662 14.0997 737.187 14.0997C737.712 14.0997 738.141 13.9247 738.475 13.5746C738.95 13.0744 739.187 12.1991 739.187 10.9487C739.187 9.69833 738.95 8.82305 738.475 8.3229C738.141 7.97279 737.712 7.79773 737.187 7.79773C736.662 7.79773 736.232 7.97279 735.899 8.3229ZM734.698 13.8871C734.215 13.1703 733.973 12.1908 733.973 10.9487C733.973 9.70667 734.215 8.72719 734.698 8.0103C735.274 7.14336 736.103 6.70989 737.187 6.70989C738.27 6.70989 739.1 7.14336 739.675 8.0103C740.158 8.72719 740.4 9.70667 740.4 10.9487C740.4 12.1908 740.158 13.1703 739.675 13.8871C739.1 14.7541 738.27 15.1876 737.187 15.1876C736.103 15.1876 735.274 14.7541 734.698 13.8871Z" fill="#B3B3B3"/>
</svg>
